<svg id="Capa_1" data-name="Capa 1" xmlns="http://www.w3.org/2000/svg" viewBox="0 0 535.78 150"><defs><style>.cls-1{font-size:21.2px;font-family:Roboto-LightItalic, Roboto;font-weight:300;font-style:italic;}.cls-2{letter-spacing:0em;}.cls-3{letter-spacing:-0.01em;}.cls-4{letter-spacing:-0.01em;}.cls-5{letter-spacing:-0.01em;}.cls-6{letter-spacing:0em;}.cls-7{letter-spacing:-0.01em;}.cls-8{letter-spacing:-0.01em;}.cls-9{letter-spacing:0em;}.cls-10{letter-spacing:0em;}.cls-11{letter-spacing:-0.01em;}.cls-12{letter-spacing:-0.01em;}.cls-13{letter-spacing:-0.01em;}.cls-14{letter-spacing:-0.01em;}.cls-15{letter-spacing:0em;}.cls-16{letter-spacing:-0.01em;}.cls-17{letter-spacing:-0.01em;}.cls-18{letter-spacing:-0.01em;}.cls-19{letter-spacing:-0.02em;}.cls-20{letter-spacing:-0.03em;}.cls-21{letter-spacing:-0.02em;}.cls-22{letter-spacing:-0.02em;}.cls-23{letter-spacing:-0.01em;}.cls-24{letter-spacing:-0.02em;}.cls-25{letter-spacing:-0.01em;}.cls-26{letter-spacing:-0.01em;}.cls-27{letter-spacing:-0.01em;}.cls-28{letter-spacing:-0.01em;}.cls-29{letter-spacing:-0.01em;}.cls-30{letter-spacing:-0.01em;}.cls-31{letter-spacing:-0.01em;}.cls-32{letter-spacing:-0.01em;}</style></defs><title>legal_imagen</title><text class="cls-1" transform="translate(30.79 81.19)"><tspan class="cls-2">*</tspan><tspan class="cls-3" x="8.43" y="0">U</tspan><tspan class="cls-4" x="21.53" y="0">s</tspan><tspan x="31.48" y="0">o </tspan><tspan class="cls-5" x="47.48" y="0">d</tspan><tspan x="58.45" y="0">e </tspan><tspan class="cls-6" x="73.63" y="0">i</tspan><tspan class="cls-7" x="78.14" y="0">m</tspan><tspan class="cls-8" x="95.43" y="0">รก</tspan><tspan class="cls-9" x="105.92" y="0">g</tspan><tspan class="cls-10" x="116.92" y="0">e</tspan><tspan class="cls-11" x="127.13" y="0">n</tspan><tspan class="cls-12" x="138.1" y="0">e</tspan><tspan x="148.17" y="0">s a </tspan><tspan class="cls-13" x="178.85" y="0">m</tspan><tspan class="cls-14" x="196.28" y="0">o</tspan><tspan class="cls-15" x="207.22" y="0">d</tspan><tspan x="218.26" y="0">o </tspan><tspan class="cls-16" x="234.26" y="0">i</tspan><tspan class="cls-17" x="238.66" y="0">l</tspan><tspan class="cls-18" x="243.01" y="0">u</tspan><tspan class="cls-19" x="253.92" y="0">stra</tspan><tspan class="cls-20" x="286.39" y="0">t</tspan><tspan class="cls-21" x="292.51" y="0">i</tspan><tspan class="cls-22" x="296.77" y="0">v</tspan><tspan x="306.09" y="0">o </tspan><tspan class="cls-17" x="322.09" y="0">p</tspan><tspan class="cls-23" x="332.94" y="0">a</tspan><tspan class="cls-24" x="343.5" y="0">r</tspan><tspan x="349.85" y="0">a </tspan><tspan class="cls-25" x="365.47" y="0">p</tspan><tspan class="cls-6" x="376.36" y="0">u</tspan><tspan class="cls-26" x="387.35" y="0">b</tspan><tspan class="cls-16" x="398.21" y="0">l</tspan><tspan class="cls-27" x="402.62" y="0">i</tspan><tspan class="cls-28" x="407.09" y="0">c</tspan><tspan class="cls-29" x="417.27" y="0">a</tspan><tspan class="cls-30" x="427.87" y="0">c</tspan><tspan class="cls-31" x="438.07" y="0">iรณ</tspan><tspan class="cls-32" x="453.55" y="0">n</tspan><tspan x="464.45" y="0">. </tspan></text></svg>