<svg id="Capa_1" data-name="Capa 1" xmlns="http://www.w3.org/2000/svg" viewBox="0 0 535.78 150"><defs><style>.cls-1{fill:#fff;}</style></defs><title>legal-05</title><path class="cls-1" d="M42.71,70.84l-2.94-1.11.53-1L43.2,70l.73-3.83h1L44.12,70l3.36-1.32.12,1-3.42,1.19,1.52,3-1,.65-1.4-3.16-2.57,3.14L40,74Z"/><path class="cls-1" d="M49.75,74.93,48.5,81.19H47.31l3-15.07h4.86a3.82,3.82,0,0,1,3.09,1.24,3.56,3.56,0,0,1,.65,3.16,5.32,5.32,0,0,1-1.84,3.27,5.68,5.68,0,0,1-3.66,1.14ZM50,73.88h3.66a4,4,0,0,0,2.71-1,4.18,4.18,0,0,0,1.4-2.37,3.06,3.06,0,0,0-.36-2.45,2.77,2.77,0,0,0-2.4-.91H51.3Z"/><path class="cls-1" d="M65.6,71.06,64.73,71a2.86,2.86,0,0,0-1.86.69,5.29,5.29,0,0,0-1.39,1.87L60,81.19h-1.2L61,70h1.06l-.23,1.85a5,5,0,0,1,1.5-1.52,3.5,3.5,0,0,1,1.9-.54,2.06,2.06,0,0,1,.42,0l.34.07Z"/><path class="cls-1" d="M69.1,81.41a3.45,3.45,0,0,1-3-1.56,5.22,5.22,0,0,1-.7-3.92l.09-.57a7.11,7.11,0,0,1,1.92-4,4.65,4.65,0,0,1,3.37-1.54,3.17,3.17,0,0,1,2.78,1.32,4.66,4.66,0,0,1,.58,3.47L74,75.64H66.66l0,.3A4.7,4.7,0,0,0,67,79.12a2.41,2.41,0,0,0,2.24,1.24A5,5,0,0,0,71.13,80a4.49,4.49,0,0,0,1.46-.91L73,80a5,5,0,0,1-1.65,1A5.85,5.85,0,0,1,69.1,81.41Zm1.54-10.57a3.17,3.17,0,0,0-2.26,1.06,5.7,5.7,0,0,0-1.44,2.62l0,.06h6l.06-.31a3.39,3.39,0,0,0-.39-2.47A2.19,2.19,0,0,0,70.64,70.84Z"/><path class="cls-1" d="M79.47,80.36a3.61,3.61,0,0,0,2.1-.71,2.84,2.84,0,0,0,1.19-1.94h1.06l0,.06a3.82,3.82,0,0,1-1.57,2.63,4.8,4.8,0,0,1-3,1,3.27,3.27,0,0,1-3-1.58,5.76,5.76,0,0,1-.56-4l.07-.43a7.62,7.62,0,0,1,1.8-4.06,4.58,4.58,0,0,1,3.54-1.53,3.38,3.38,0,0,1,2.66,1.1,3.18,3.18,0,0,1,.67,2.85l0,.05H83.38a2.3,2.3,0,0,0-2.4-3,3.23,3.23,0,0,0-2.63,1.31A6.9,6.9,0,0,0,77,75.37l-.07.44a5.68,5.68,0,0,0,.25,3.3A2.29,2.29,0,0,0,79.47,80.36Z"/><path class="cls-1" d="M86.83,81.19H85.64L87.87,70h1.2Zm2.88-14.4H88.52l.35-1.74h1.19Z"/><path class="cls-1" d="M90.43,75.43a7.31,7.31,0,0,1,1.91-4.1,4.8,4.8,0,0,1,3.6-1.54A3.43,3.43,0,0,1,99,71.39a5.54,5.54,0,0,1,.66,4l-.06.34a7.37,7.37,0,0,1-1.9,4.11,4.82,4.82,0,0,1-3.59,1.53A3.44,3.44,0,0,1,91,79.82a5.47,5.47,0,0,1-.66-4Zm1.16.34a5,5,0,0,0,.36,3.3,2.42,2.42,0,0,0,2.32,1.29A3.46,3.46,0,0,0,97,79a6.6,6.6,0,0,0,1.46-3.25l0-.35a5.24,5.24,0,0,0-.38-3.28,2.41,2.41,0,0,0-2.3-1.3,3.46,3.46,0,0,0-2.7,1.35,6.33,6.33,0,0,0-1.44,3.23Z"/><path class="cls-1" d="M107.67,78.34a1.64,1.64,0,0,0-.38-1.39,3.94,3.94,0,0,0-2-.94,5.92,5.92,0,0,1-2.59-1.15,2.09,2.09,0,0,1-.57-2,3.3,3.3,0,0,1,1.35-2.19,4.57,4.57,0,0,1,2.82-.86,3.47,3.47,0,0,1,2.62.95,2.48,2.48,0,0,1,.64,2.33l0,.06h-1.12a1.85,1.85,0,0,0-.46-1.62,2.35,2.35,0,0,0-1.82-.67,3,3,0,0,0-1.94.6,2.09,2.09,0,0,0-.87,1.35,1.46,1.46,0,0,0,.32,1.29,4.31,4.31,0,0,0,2,.87,5.79,5.79,0,0,1,2.59,1.22,2.26,2.26,0,0,1,.6,2.11,3.36,3.36,0,0,1-1.42,2.29,5,5,0,0,1-2.94.84,3.78,3.78,0,0,1-2.79-1,2.45,2.45,0,0,1-.7-2.31l0-.06h1.11a1.78,1.78,0,0,0,.63,1.75,3.21,3.21,0,0,0,1.9.55,3.35,3.35,0,0,0,2-.6A2.16,2.16,0,0,0,107.67,78.34Z"/><path class="cls-1" d="M122.74,78.34a1.64,1.64,0,0,0-.38-1.39,3.94,3.94,0,0,0-2-.94,5.92,5.92,0,0,1-2.59-1.15,2.11,2.11,0,0,1-.57-2,3.3,3.3,0,0,1,1.35-2.19,4.57,4.57,0,0,1,2.82-.86,3.47,3.47,0,0,1,2.62.95,2.5,2.5,0,0,1,.64,2.33l0,.06H123.5a1.85,1.85,0,0,0-.46-1.62,2.35,2.35,0,0,0-1.82-.67,3,3,0,0,0-2,.6,2.11,2.11,0,0,0-.86,1.35,1.46,1.46,0,0,0,.32,1.29,4.26,4.26,0,0,0,2,.87,5.79,5.79,0,0,1,2.59,1.22,2.26,2.26,0,0,1,.6,2.11,3.36,3.36,0,0,1-1.42,2.29,5,5,0,0,1-2.94.84,3.78,3.78,0,0,1-2.79-1,2.45,2.45,0,0,1-.7-2.31l0-.06h1.11a1.78,1.78,0,0,0,.63,1.75,3.19,3.19,0,0,0,1.9.55,3.37,3.37,0,0,0,2-.6A2.16,2.16,0,0,0,122.74,78.34Z"/><path class="cls-1" d="M132.67,81.19l.25-1.71a4.71,4.71,0,0,1-1.62,1.44,4.47,4.47,0,0,1-2.11.49,2.5,2.5,0,0,1-2.29-1.22,5.18,5.18,0,0,1-.24-3.7L128,70h1.2l-1.29,6.52a4.78,4.78,0,0,0,0,3,1.74,1.74,0,0,0,1.68.83,3.57,3.57,0,0,0,2.13-.66,4.71,4.71,0,0,0,1.49-1.77L134.76,70H136l-2.23,11.19Z"/><path class="cls-1" d="M140.33,70l-2.42,12.12a5.13,5.13,0,0,1-1.29,2.72,3.28,3.28,0,0,1-2.34.88,3.07,3.07,0,0,1-.53,0l-.52-.15.35-1,.4.1a2.92,2.92,0,0,0,.45,0,1.87,1.87,0,0,0,1.42-.65,3.59,3.59,0,0,0,.87-1.86L139.14,70Zm.6-3.25h-1.2l.35-1.7h1.2Z"/><path class="cls-1" d="M145.35,81.41a3.45,3.45,0,0,1-3-1.56,5.22,5.22,0,0,1-.7-3.92l.09-.57a7.17,7.17,0,0,1,1.92-4,4.65,4.65,0,0,1,3.37-1.54,3.17,3.17,0,0,1,2.78,1.32,4.66,4.66,0,0,1,.58,3.47l-.17,1.06h-7.33l0,.3a4.7,4.7,0,0,0,.41,3.18,2.41,2.41,0,0,0,2.24,1.24,5,5,0,0,0,1.86-.33,4.49,4.49,0,0,0,1.46-.91l.38.85a5.16,5.16,0,0,1-1.66,1A5.85,5.85,0,0,1,145.35,81.41Zm1.54-10.57a3.13,3.13,0,0,0-2.25,1.06,5.63,5.63,0,0,0-1.45,2.62l0,.06h6l.05-.31a3.39,3.39,0,0,0-.39-2.47A2.19,2.19,0,0,0,146.89,70.84Z"/><path class="cls-1" d="M155.92,67.13,155.34,70h2.27l-.19,1h-2.28l-1.46,7.3a2.31,2.31,0,0,0,0,1.6,1,1,0,0,0,.9.42c.18,0,.36,0,.56,0s.4,0,.61-.08v.92a3,3,0,0,1-.73.21,5.07,5.07,0,0,1-.86.07,1.72,1.72,0,0,1-1.54-.75,3.12,3.12,0,0,1-.18-2.35l1.46-7.3h-1.79l.2-1h1.79l.58-2.87Z"/><path class="cls-1" d="M157.69,75.43a7.37,7.37,0,0,1,1.9-4.1,4.84,4.84,0,0,1,3.61-1.54,3.43,3.43,0,0,1,3.06,1.6,5.54,5.54,0,0,1,.66,4l-.06.34a7.37,7.37,0,0,1-1.9,4.11,4.82,4.82,0,0,1-3.59,1.53,3.44,3.44,0,0,1-3.07-1.59,5.47,5.47,0,0,1-.66-4Zm1.15.34a5.07,5.07,0,0,0,.37,3.3,2.42,2.42,0,0,0,2.32,1.29A3.46,3.46,0,0,0,164.21,79a6.6,6.6,0,0,0,1.46-3.25l.05-.35a5.24,5.24,0,0,0-.38-3.28,2.41,2.41,0,0,0-2.3-1.3,3.46,3.46,0,0,0-2.7,1.35,6.33,6.33,0,0,0-1.44,3.23Z"/><path class="cls-1" d="M174.93,78.34a1.67,1.67,0,0,0-.37-1.39,4,4,0,0,0-2-.94A6,6,0,0,1,170,74.86a2.11,2.11,0,0,1-.57-2,3.3,3.3,0,0,1,1.35-2.19,4.57,4.57,0,0,1,2.82-.86,3.45,3.45,0,0,1,2.62.95,2.48,2.48,0,0,1,.64,2.33l0,.06h-1.12a1.85,1.85,0,0,0-.46-1.62,2.35,2.35,0,0,0-1.82-.67,3,3,0,0,0-1.94.6,2.13,2.13,0,0,0-.87,1.35,1.46,1.46,0,0,0,.32,1.29,4.31,4.31,0,0,0,2,.87,5.79,5.79,0,0,1,2.59,1.22,2.26,2.26,0,0,1,.6,2.11,3.36,3.36,0,0,1-1.42,2.29,4.93,4.93,0,0,1-2.94.84,3.78,3.78,0,0,1-2.79-1,2.45,2.45,0,0,1-.7-2.31l0-.06h1.11a1.78,1.78,0,0,0,.63,1.75,3.21,3.21,0,0,0,1.9.55,3.4,3.4,0,0,0,2-.6A2.18,2.18,0,0,0,174.93,78.34Z"/><path class="cls-1" d="M189.74,81.19c0-.51,0-.87,0-1.08a5.6,5.6,0,0,1,.1-.72,6.32,6.32,0,0,1-1.81,1.45,4.7,4.7,0,0,1-2.25.57,2.6,2.6,0,0,1-2.15-.88,2.71,2.71,0,0,1-.42-2.32A3.68,3.68,0,0,1,185,75.68a6.55,6.55,0,0,1,3.56-.88h2.26l.28-1.39a2.12,2.12,0,0,0-.3-1.92,2.37,2.37,0,0,0-1.86-.65,3.59,3.59,0,0,0-2.07.67,2.54,2.54,0,0,0-1.13,1.58h-1.08l0-.06a3.44,3.44,0,0,1,1.51-2.29,5,5,0,0,1,3.06-.94,3.35,3.35,0,0,1,2.54,1,2.87,2.87,0,0,1,.56,2.68l-1.09,5.51A8.89,8.89,0,0,0,191,80.1a6.6,6.6,0,0,0,0,1.09Zm-3.56-.88a4.51,4.51,0,0,0,2.25-.63,4.84,4.84,0,0,0,1.71-1.58l.47-2.35h-2.3a4.51,4.51,0,0,0-2.55.73,2.79,2.79,0,0,0-1.33,1.77,1.72,1.72,0,0,0,.26,1.52A1.84,1.84,0,0,0,186.18,80.31Z"/><path class="cls-1" d="M203,80.36a3.56,3.56,0,0,0,2.09-.71,2.82,2.82,0,0,0,1.2-1.94h1l0,.06a3.77,3.77,0,0,1-1.56,2.63,4.83,4.83,0,0,1-3,1,3.27,3.27,0,0,1-3-1.58,5.87,5.87,0,0,1-.56-4l.07-.43a7.62,7.62,0,0,1,1.8-4.06,4.58,4.58,0,0,1,3.54-1.53,3.38,3.38,0,0,1,2.66,1.1,3.16,3.16,0,0,1,.67,2.85l0,.05h-1.07a2.52,2.52,0,0,0-.47-2.17,2.47,2.47,0,0,0-1.93-.78,3.21,3.21,0,0,0-2.63,1.31,6.9,6.9,0,0,0-1.35,3.22l-.07.44a5.59,5.59,0,0,0,.26,3.3A2.27,2.27,0,0,0,203,80.36Z"/><path class="cls-1" d="M215.54,81.19c0-.51,0-.87,0-1.08a5.78,5.78,0,0,1,.11-.72,6.46,6.46,0,0,1-1.81,1.45,4.74,4.74,0,0,1-2.26.57,2.58,2.58,0,0,1-2.14-.88,2.68,2.68,0,0,1-.43-2.32,3.71,3.71,0,0,1,1.72-2.53,6.55,6.55,0,0,1,3.56-.88h2.27l.28-1.39a2.15,2.15,0,0,0-.31-1.92,2.36,2.36,0,0,0-1.86-.65,3.59,3.59,0,0,0-2.07.67,2.54,2.54,0,0,0-1.13,1.58h-1.08l0-.06a3.46,3.46,0,0,1,1.5-2.29,5,5,0,0,1,3.06-.94,3.33,3.33,0,0,1,2.54,1,2.87,2.87,0,0,1,.57,2.68L217,78.94a8.89,8.89,0,0,0-.18,1.16,7.92,7.92,0,0,0,0,1.09ZM212,80.31a4.51,4.51,0,0,0,2.25-.63,4.76,4.76,0,0,0,1.71-1.58l.47-2.35h-2.3a4.51,4.51,0,0,0-2.55.73,2.79,2.79,0,0,0-1.33,1.77,1.75,1.75,0,0,0,.26,1.52A1.84,1.84,0,0,0,212,80.31Z"/><path class="cls-1" d="M222.57,71.72a4.75,4.75,0,0,1,1.61-1.43,4.24,4.24,0,0,1,2.08-.5,2.58,2.58,0,0,1,1.79.61,2.81,2.81,0,0,1,.82,1.86,5.28,5.28,0,0,1,1.7-1.83,4.13,4.13,0,0,1,2.28-.64A2.45,2.45,0,0,1,235.12,71a5.27,5.27,0,0,1,.23,3.66l-1.3,6.53h-1.21l1.31-6.56a4.57,4.57,0,0,0-.06-3,1.88,1.88,0,0,0-1.72-.79,3,3,0,0,0-2.16.93,5.87,5.87,0,0,0-1.42,2.31l-.06.38-1.35,6.73h-1.21l1.32-6.56a4.58,4.58,0,0,0-.07-3,1.87,1.87,0,0,0-1.74-.81,3.06,3.06,0,0,0-2,.71,5.11,5.11,0,0,0-1.41,1.87l-1.55,7.77h-1.21L221.74,70h1.07Z"/><path class="cls-1" d="M246.38,76.06a8.35,8.35,0,0,1-1.75,4,4,4,0,0,1-3.1,1.33,3.26,3.26,0,0,1-1.85-.53,3.38,3.38,0,0,1-1.25-1.42L238,81.19h-1l3.22-16.14h1.2l-1.3,6.47,0,0a4.65,4.65,0,0,1,1.46-1.31,3.88,3.88,0,0,1,1.88-.46,2.8,2.8,0,0,1,2.64,1.72,6.59,6.59,0,0,1,.35,4.33Zm-1.17-.22a6.33,6.33,0,0,0-.12-3.63A2.07,2.07,0,0,0,243,70.84a2.88,2.88,0,0,0-1.9.7,6,6,0,0,0-1.4,1.75l-1,5.09a2.56,2.56,0,0,0,.95,1.44,3.06,3.06,0,0,0,1.88.54,2.9,2.9,0,0,0,2.32-1.15,7.15,7.15,0,0,0,1.34-3.15Z"/><path class="cls-1" d="M249.13,81.19h-1.19L250.18,70h1.19ZM252,66.79h-1.19l.35-1.74h1.19Z"/><path class="cls-1" d="M252.74,75.43a7.31,7.31,0,0,1,1.9-4.1,4.82,4.82,0,0,1,3.6-1.54,3.43,3.43,0,0,1,3.06,1.6,5.54,5.54,0,0,1,.66,4l0,.34A7.38,7.38,0,0,1,260,79.88a4.82,4.82,0,0,1-3.59,1.53,3.46,3.46,0,0,1-3.07-1.59,5.52,5.52,0,0,1-.66-4Zm1.15.34a5.14,5.14,0,0,0,.36,3.3,2.43,2.43,0,0,0,2.33,1.29A3.46,3.46,0,0,0,259.25,79a6.6,6.6,0,0,0,1.46-3.25l.05-.35a5.17,5.17,0,0,0-.38-3.28,2.41,2.41,0,0,0-2.3-1.3,3.46,3.46,0,0,0-2.7,1.35,6.33,6.33,0,0,0-1.44,3.23Z"/><path class="cls-1" d="M270,78.34A1.67,1.67,0,0,0,269.6,77a4,4,0,0,0-2-.94A6,6,0,0,1,265,74.86a2.11,2.11,0,0,1-.57-2,3.3,3.3,0,0,1,1.35-2.19,4.61,4.61,0,0,1,2.82-.86,3.44,3.44,0,0,1,2.62.95,2.48,2.48,0,0,1,.64,2.33l0,.06h-1.11a1.89,1.89,0,0,0-.47-1.62,2.35,2.35,0,0,0-1.82-.67,3,3,0,0,0-1.94.6,2.13,2.13,0,0,0-.87,1.35,1.46,1.46,0,0,0,.32,1.29,4.31,4.31,0,0,0,2,.87,5.83,5.83,0,0,1,2.6,1.22,2.28,2.28,0,0,1,.59,2.11,3.36,3.36,0,0,1-1.42,2.29,4.91,4.91,0,0,1-2.94.84,3.78,3.78,0,0,1-2.79-1,2.44,2.44,0,0,1-.69-2.31v-.06h1.11a1.76,1.76,0,0,0,.64,1.75,3.16,3.16,0,0,0,1.89.55,3.4,3.4,0,0,0,2-.6A2.14,2.14,0,0,0,270,78.34Z"/><path class="cls-1" d="M285,78.34a1.67,1.67,0,0,0-.37-1.39,4,4,0,0,0-2-.94,5.92,5.92,0,0,1-2.59-1.15,2.11,2.11,0,0,1-.57-2,3.3,3.3,0,0,1,1.35-2.19,4.59,4.59,0,0,1,2.82-.86,3.47,3.47,0,0,1,2.62.95,2.48,2.48,0,0,1,.64,2.33l0,.06H285.8a1.85,1.85,0,0,0-.46-1.62,2.35,2.35,0,0,0-1.82-.67,3,3,0,0,0-1.94.6,2.13,2.13,0,0,0-.87,1.35,1.46,1.46,0,0,0,.32,1.29,4.31,4.31,0,0,0,2,.87,5.73,5.73,0,0,1,2.59,1.22,2.26,2.26,0,0,1,.6,2.11,3.36,3.36,0,0,1-1.42,2.29,4.93,4.93,0,0,1-2.94.84,3.78,3.78,0,0,1-2.79-1,2.45,2.45,0,0,1-.7-2.31l0-.06h1.1a1.78,1.78,0,0,0,.63,1.75,3.21,3.21,0,0,0,1.9.55,3.38,3.38,0,0,0,2-.6A2.18,2.18,0,0,0,285,78.34Z"/><path class="cls-1" d="M292.22,81.41a3.43,3.43,0,0,1-3-1.56,5.18,5.18,0,0,1-.71-3.92l.1-.57a7,7,0,0,1,1.92-4,4.63,4.63,0,0,1,3.37-1.54,3.15,3.15,0,0,1,2.77,1.32,4.61,4.61,0,0,1,.58,3.47l-.17,1.06h-7.33l0,.3a4.76,4.76,0,0,0,.41,3.18,2.41,2.41,0,0,0,2.24,1.24,5,5,0,0,0,1.86-.33,4.54,4.54,0,0,0,1.47-.91l.37.85a5.05,5.05,0,0,1-1.66,1A5.8,5.8,0,0,1,292.22,81.41Zm1.53-10.57a3.13,3.13,0,0,0-2.25,1.06,5.63,5.63,0,0,0-1.45,2.62l0,.06h6l.05-.31a3.44,3.44,0,0,0-.38-2.47A2.21,2.21,0,0,0,293.75,70.84Z"/><path class="cls-1" d="M299,75.48a9.12,9.12,0,0,1,1.81-4.27A4,4,0,0,1,304,69.79a3.36,3.36,0,0,1,1.85.51,3.11,3.11,0,0,1,1.2,1.4l.48-1.7h1l-2.2,11a6.11,6.11,0,0,1-1.8,3.49,4.93,4.93,0,0,1-3.37,1.18,6.7,6.7,0,0,1-1.53-.2,5.46,5.46,0,0,1-1.41-.54l.52-1a4.58,4.58,0,0,0,1.2.49,5.36,5.36,0,0,0,1.42.18,3.38,3.38,0,0,0,2.42-1,4.81,4.81,0,0,0,1.34-2.6l.25-1.26a4.59,4.59,0,0,1-1.49,1.2,4,4,0,0,1-1.84.42,2.85,2.85,0,0,1-2.65-1.63,5.86,5.86,0,0,1-.41-4.08Zm1.16.22a5.43,5.43,0,0,0,.17,3.4,2.16,2.16,0,0,0,2.14,1.26,3,3,0,0,0,1.81-.6,5.41,5.41,0,0,0,1.4-1.61l1-5.21a2.79,2.79,0,0,0-.88-1.5,2.66,2.66,0,0,0-1.84-.6,2.94,2.94,0,0,0-2.39,1.27,8,8,0,0,0-1.4,3.37Z"/><path class="cls-1" d="M316.1,81.19l.25-1.71a4.62,4.62,0,0,1-1.62,1.44,4.45,4.45,0,0,1-2.1.49,2.51,2.51,0,0,1-2.3-1.22,5.18,5.18,0,0,1-.24-3.7l1.3-6.49h1.2l-1.3,6.52a4.86,4.86,0,0,0,0,3,1.75,1.75,0,0,0,1.68.83,3.6,3.6,0,0,0,2.14-.66,4.69,4.69,0,0,0,1.48-1.77L318.2,70h1.2l-2.24,11.19Zm1.38-15.31h1.46l0,.06-2.82,2.69h-1l0,0Z"/><path class="cls-1" d="M323.21,71.84a4.86,4.86,0,0,1,1.65-1.52,4.2,4.2,0,0,1,2.12-.53,2.51,2.51,0,0,1,2.29,1.13,4.77,4.77,0,0,1,.26,3.45l-1.36,6.82H327l1.36-6.82a4.12,4.12,0,0,0-.08-2.79,2,2,0,0,0-1.76-.74,3.27,3.27,0,0,0-2,.73,5.58,5.58,0,0,0-1.53,1.9l-1.54,7.72h-1.2L322.41,70h1.07Z"/><path class="cls-1" d="M345.61,76.11a8.14,8.14,0,0,1-1.75,4,4,4,0,0,1-3.1,1.31,3.86,3.86,0,0,1-1.85-.43,3,3,0,0,1-1.25-1.22l-1.15,5.74h-1.2L338.4,70h1l-.18,1.59a4.81,4.81,0,0,1,1.53-1.33,3.94,3.94,0,0,1,1.91-.47,2.78,2.78,0,0,1,2.63,1.74,6.72,6.72,0,0,1,.34,4.37Zm-1.16-.23a6.28,6.28,0,0,0-.14-3.64,2.13,2.13,0,0,0-2.12-1.4,2.92,2.92,0,0,0-1.84.64A5.7,5.7,0,0,0,339,73.12l-1.08,5.4a2.4,2.4,0,0,0,1,1.34,3.12,3.12,0,0,0,1.83.5,3,3,0,0,0,2.36-1.14,6.82,6.82,0,0,0,1.36-3.12Z"/><path class="cls-1" d="M348.37,81.19h-1.19l3.23-16.14h1.18Z"/><path class="cls-1" d="M358,81.19c0-.51,0-.87,0-1.08a5.6,5.6,0,0,1,.1-.72,6.46,6.46,0,0,1-1.81,1.45,4.71,4.71,0,0,1-2.26.57,2.59,2.59,0,0,1-2.14-.88,2.65,2.65,0,0,1-.42-2.32,3.67,3.67,0,0,1,1.71-2.53,6.57,6.57,0,0,1,3.56-.88H359l.28-1.39a2.19,2.19,0,0,0-.3-1.92,2.37,2.37,0,0,0-1.86-.65,3.55,3.55,0,0,0-2.07.67A2.5,2.5,0,0,0,354,73.09h-1.09l0-.06a3.46,3.46,0,0,1,1.5-2.29,5.06,5.06,0,0,1,3.07-.94,3.31,3.31,0,0,1,2.53,1,2.85,2.85,0,0,1,.57,2.68l-1.1,5.51a8.89,8.89,0,0,0-.18,1.16,6.61,6.61,0,0,0,0,1.09Zm-3.56-.88a4.51,4.51,0,0,0,2.24-.63,4.88,4.88,0,0,0,1.72-1.58l.46-2.35h-2.29a4.56,4.56,0,0,0-2.56.73,2.77,2.77,0,0,0-1.32,1.77,1.69,1.69,0,0,0,.26,1.52A1.84,1.84,0,0,0,354.42,80.31Z"/><path class="cls-1" d="M365,71.84a4.86,4.86,0,0,1,1.65-1.52,4.2,4.2,0,0,1,2.12-.53,2.54,2.54,0,0,1,2.3,1.13,4.83,4.83,0,0,1,.25,3.45L370,81.19h-1.2l1.36-6.82a4.12,4.12,0,0,0-.08-2.79,2,2,0,0,0-1.76-.74,3.25,3.25,0,0,0-2,.73,5.58,5.58,0,0,0-1.53,1.9l-1.54,7.72H362L364.19,70h1.07Z"/><path class="cls-1" d="M381.54,78.16l.09,1.26h.06l5-9.43H388l-7.11,13a8.52,8.52,0,0,1-1.44,1.93,2.8,2.8,0,0,1-2.05.8,3.28,3.28,0,0,1-.47,0,2.08,2.08,0,0,1-.44-.1l.35-1,.38,0,.36,0a1.84,1.84,0,0,0,1.29-.6A6.27,6.27,0,0,0,380,82.56l.85-1.52L379,70h1.34Z"/><path class="cls-1" d="M394,81.19h-1.19L396,65.05h1.19Z"/><path class="cls-1" d="M397.58,75.43a7.24,7.24,0,0,1,1.9-4.1,4.82,4.82,0,0,1,3.6-1.54,3.43,3.43,0,0,1,3.06,1.6,5.54,5.54,0,0,1,.66,4l-.05.34a7.38,7.38,0,0,1-1.91,4.11,4.82,4.82,0,0,1-3.59,1.53,3.46,3.46,0,0,1-3.07-1.59,5.52,5.52,0,0,1-.66-4Zm1.15.34a5,5,0,0,0,.36,3.3,2.43,2.43,0,0,0,2.33,1.29A3.46,3.46,0,0,0,404.09,79a6.6,6.6,0,0,0,1.46-3.25l.05-.35a5.24,5.24,0,0,0-.38-3.28,2.41,2.41,0,0,0-2.3-1.3,3.46,3.46,0,0,0-2.7,1.35,6.33,6.33,0,0,0-1.44,3.23Z"/><path class="cls-1" d="M412.32,80.36a3.61,3.61,0,0,0,2.1-.71,2.84,2.84,0,0,0,1.19-1.94h1.06l0,.06a3.82,3.82,0,0,1-1.57,2.63,4.8,4.8,0,0,1-3,1,3.27,3.27,0,0,1-3-1.58,5.76,5.76,0,0,1-.56-4l.07-.43a7.62,7.62,0,0,1,1.8-4.06A4.58,4.58,0,0,1,414,69.79a3.38,3.38,0,0,1,2.66,1.1,3.18,3.18,0,0,1,.67,2.85l0,.05h-1.08a2.48,2.48,0,0,0-.47-2.17,2.45,2.45,0,0,0-1.93-.78,3.23,3.23,0,0,0-2.63,1.31,6.79,6.79,0,0,0-1.34,3.22l-.08.44a5.67,5.67,0,0,0,.26,3.3A2.29,2.29,0,0,0,412.32,80.36Z"/><path class="cls-1" d="M424.92,81.19c0-.51,0-.87,0-1.08a5.6,5.6,0,0,1,.1-.72,6.32,6.32,0,0,1-1.81,1.45,4.71,4.71,0,0,1-2.26.57,2.59,2.59,0,0,1-2.14-.88,2.68,2.68,0,0,1-.42-2.32,3.65,3.65,0,0,1,1.72-2.53,6.52,6.52,0,0,1,3.56-.88H426l.28-1.39a2.15,2.15,0,0,0-.3-1.92,2.37,2.37,0,0,0-1.86-.65,3.55,3.55,0,0,0-2.07.67,2.5,2.5,0,0,0-1.13,1.58H419.8l0-.06a3.46,3.46,0,0,1,1.5-2.29,5.08,5.08,0,0,1,3.07-.94,3.31,3.31,0,0,1,2.53,1,2.85,2.85,0,0,1,.57,2.68l-1.1,5.51a7.39,7.39,0,0,0-.17,1.16,5.66,5.66,0,0,0,0,1.09Zm-3.56-.88a4.51,4.51,0,0,0,2.24-.63,4.88,4.88,0,0,0,1.72-1.58l.47-2.35h-2.3a4.56,4.56,0,0,0-2.56.73,2.81,2.81,0,0,0-1.32,1.77,1.72,1.72,0,0,0,.26,1.52A1.84,1.84,0,0,0,421.36,80.31Z"/><path class="cls-1" d="M430.16,81.19H429l3.23-16.14h1.19Z"/><path class="cls-1" d="M434.56,81.19h-1.19L435.6,70h1.19Zm2.88-14.4h-1.19l.35-1.74h1.19Z"/><path class="cls-1" d="M438.23,80.09l0,0h6.67l-.21,1h-8.2l.19-.92,8-9.17,0,0h-6l.2-1h7.56l-.18.91Z"/><path class="cls-1" d="M453,81.19c0-.51,0-.87,0-1.08a4.26,4.26,0,0,1,.1-.72,6.46,6.46,0,0,1-1.81,1.45,4.71,4.71,0,0,1-2.26.57,2.59,2.59,0,0,1-2.14-.88,2.68,2.68,0,0,1-.43-2.32,3.71,3.71,0,0,1,1.72-2.53,6.57,6.57,0,0,1,3.56-.88h2.27l.28-1.39a2.15,2.15,0,0,0-.31-1.92,2.33,2.33,0,0,0-1.85-.65,3.55,3.55,0,0,0-2.07.67A2.46,2.46,0,0,0,449,73.09h-1.09l0-.06a3.46,3.46,0,0,1,1.5-2.29,5.05,5.05,0,0,1,3.06-.94,3.33,3.33,0,0,1,2.54,1,2.85,2.85,0,0,1,.57,2.68l-1.1,5.51a8.89,8.89,0,0,0-.18,1.16,6.61,6.61,0,0,0,0,1.09Zm-3.57-.88a4.51,4.51,0,0,0,2.25-.63,4.88,4.88,0,0,0,1.72-1.58l.46-2.35h-2.29a4.54,4.54,0,0,0-2.56.73,2.79,2.79,0,0,0-1.33,1.77,1.75,1.75,0,0,0,.26,1.52A1.87,1.87,0,0,0,449.44,80.31Z"/><path class="cls-1" d="M461.19,80.36a3.61,3.61,0,0,0,2.1-.71,2.84,2.84,0,0,0,1.19-1.94h1.06l0,.06A3.79,3.79,0,0,1,464,80.4a4.8,4.8,0,0,1-3,1,3.27,3.27,0,0,1-3-1.58,5.76,5.76,0,0,1-.56-4l.07-.43a7.62,7.62,0,0,1,1.8-4.06,4.58,4.58,0,0,1,3.54-1.53,3.38,3.38,0,0,1,2.66,1.1,3.16,3.16,0,0,1,.67,2.85l0,.05H465.1a2.3,2.3,0,0,0-2.4-3,3.19,3.19,0,0,0-2.62,1.31,6.8,6.8,0,0,0-1.35,3.22l-.07.44a5.59,5.59,0,0,0,.26,3.3A2.27,2.27,0,0,0,461.19,80.36Z"/><path class="cls-1" d="M468.55,81.19h-1.19L469.59,70h1.2Zm2.88-14.4h-1.19l.35-1.74h1.19Z"/><path class="cls-1" d="M472.16,75.43a7.36,7.36,0,0,1,1.89-4.1,4.84,4.84,0,0,1,3.61-1.54,3.43,3.43,0,0,1,3.06,1.6,5.54,5.54,0,0,1,.66,4l-.05.34a7.38,7.38,0,0,1-1.91,4.11,4.82,4.82,0,0,1-3.59,1.53,3.44,3.44,0,0,1-3.07-1.59,5.52,5.52,0,0,1-.66-4Zm1.14.34a5.07,5.07,0,0,0,.37,3.3A2.43,2.43,0,0,0,476,80.36,3.46,3.46,0,0,0,478.67,79a6.5,6.5,0,0,0,1.45-3.25l.06-.35a5.24,5.24,0,0,0-.38-3.28,2.41,2.41,0,0,0-2.3-1.3,3.46,3.46,0,0,0-2.7,1.35,6.33,6.33,0,0,0-1.44,3.23Zm6.38-10.11h1.46l0,.06-2.83,2.69h-1l0,0Z"/><path class="cls-1" d="M485.73,71.84a4.92,4.92,0,0,1,1.64-1.52,4.26,4.26,0,0,1,2.13-.53,2.51,2.51,0,0,1,2.29,1.13,4.82,4.82,0,0,1,.26,3.45l-1.37,6.82h-1.19l1.36-6.82a4,4,0,0,0-.09-2.79,2,2,0,0,0-1.75-.74,3.28,3.28,0,0,0-2.05.73,5.68,5.68,0,0,0-1.52,1.9l-1.54,7.72h-1.21L484.93,70H486Z"/><path class="cls-1" d="M495.05,81.19h-1.36L494,79.5h1.35Z"/></svg>