<svg id="Capa_1" data-name="Capa 1" xmlns="http://www.w3.org/2000/svg" viewBox="0 0 535.78 150"><defs><style>.cls-1,.cls-2{fill:#fff;}.cls-1{fill-rule:evenodd;}</style></defs><title>logo</title><path class="cls-1" d="M152.74,92.74a5,5,0,0,0-1.86,1.59,3.82,3.82,0,0,0-.63,2.15A3.76,3.76,0,0,0,152.9,100q2.67,1.13,8.55,1.12c3.6,0,6.16-.33,7.66-1a3.43,3.43,0,0,0,2.27-3.3,2.61,2.61,0,0,0-1.29-2.35,8.7,8.7,0,0,0-4.05-1l-13.3-.77Zm7.79-31.65A6.08,6.08,0,0,0,156,62.83a6.15,6.15,0,0,0-1.72,4.55A6.26,6.26,0,0,0,156,72a7,7,0,0,0,9.15,0,6.29,6.29,0,0,0,1.65-4.62,6.21,6.21,0,0,0-1.71-4.58,6.08,6.08,0,0,0-4.53-1.71ZM149.42,76.65a11.57,11.57,0,0,1-4.37-3.89,9.49,9.49,0,0,1-1.51-5.23,10.84,10.84,0,0,1,4.63-9.05c3.08-2.31,7.12-3.48,12.15-3.48a22.18,22.18,0,0,1,4,.35,20.42,20.42,0,0,1,3.85,1.07,9.27,9.27,0,0,1,2.71-6.13c1.49-1.32,3.66-2,6.47-2,.46,0,1.39,0,2.76.11l1,.08-.25,7.86a2,2,0,0,0-.41,0c-1-.07-1.8-.11-2.23-.11a7.37,7.37,0,0,0-3.44.63,3.08,3.08,0,0,0-1.52,2.08,14.33,14.33,0,0,1,3,4.13,11,11,0,0,1,1,4.56,10.45,10.45,0,0,1-4.32,8.85q-4.3,3.26-11.84,3.25a31.8,31.8,0,0,1-3.24-.15,17.53,17.53,0,0,1-2.71-.47,5,5,0,0,0-1.79,1.18,2.19,2.19,0,0,0-.6,1.5,2.36,2.36,0,0,0,.93,2,5.23,5.23,0,0,0,2.88.8l11.64.51q6.15.3,9.72,3.15a9.11,9.11,0,0,1,3.57,7.47,9.73,9.73,0,0,1-5.19,8.77q-5.22,3.12-14.71,3.11-10.68,0-15.83-2.45t-5.17-7.51a7,7,0,0,1,1.53-4.48,8.77,8.77,0,0,1,4.27-2.84,7.55,7.55,0,0,1-2.76-2.49,6,6,0,0,1-.94-3.31,7,7,0,0,1,1.67-4.75,11.24,11.24,0,0,1,5.07-3.12Zm35.93,17.29V42.46h11V60.6a13.06,13.06,0,0,1,4.6-4.37A12.45,12.45,0,0,1,207,54.78c4.21,0,7.32,1.17,9.35,3.54s3,6,3,10.91V93.94H208.35V70a9,9,0,0,0-1.3-5.3,4.54,4.54,0,0,0-3.92-1.8,6,6,0,0,0-4.92,2.35,9.72,9.72,0,0,0-1.88,6.23V93.94Zm73.86-32.42a14.72,14.72,0,0,1,5.09-5A13.48,13.48,0,0,1,271,54.93c3.79,0,6.66,1.07,8.63,3.24s2.93,5.33,2.93,9.51V93.94H271.67V69.46a7.45,7.45,0,0,0-1.25-4.6,4.22,4.22,0,0,0-3.57-1.64,5.73,5.73,0,0,0-4.71,2.3,9.68,9.68,0,0,0-1.81,6.11V93.94h-10.9V69.6a8,8,0,0,0-1.2-4.77,4.14,4.14,0,0,0-3.55-1.61,5.61,5.61,0,0,0-4.54,2.15,8.45,8.45,0,0,0-1.76,5.57v23h-10.9V55.79h10.14v5.8a14.14,14.14,0,0,1,4.7-5,11.48,11.48,0,0,1,6.2-1.68,12.32,12.32,0,0,1,6.58,1.61A10.67,10.67,0,0,1,259.21,61.52Z"/><path class="cls-1" d="M54,3.34h0C41.43,3.35,29,16.42,19.78,34.47c-9,17.63-15,40.16-15,59.68h0c0,20,7.79,33.08,17.84,41.23A51.72,51.72,0,0,0,54,146.65h0a51.68,51.68,0,0,0,31.43-11.26c10-8.14,17.83-21.27,17.83-41.22h0c0-19.53-6-42.06-15-59.69-9.2-18-21.65-31.12-34.26-31.12h0Zm0,4.42h0c10.74,0,21.82,12.06,30.31,28.72C93.07,53.56,98.9,75.33,98.9,94.16h0c0,18.38-7.07,30.39-16.21,37.8a47.14,47.14,0,0,1-28.64,10.27h0A47.1,47.1,0,0,1,25.4,132c-9.14-7.41-16.22-19.42-16.22-37.8h0c0-18.82,5.84-40.59,14.54-57.67C32.21,19.82,43.29,7.76,54,7.76Z"/><path class="cls-2" d="M295.09,84.06l5.62-1.16q1.88,7.16,11.84,7.15a11.27,11.27,0,0,0,6.21-1.64,5.23,5.23,0,0,0,2.55-4.64q0-4.45-6.48-5.65l-8-1.51a14.55,14.55,0,0,1-7.45-3.52,9.09,9.09,0,0,1-2.77-6.93,10,10,0,0,1,3.78-8Q304.19,55,310.6,55q12.31,0,15.2,9.62l-5.39,1.16q-2.32-5.91-9.55-5.91a10.71,10.71,0,0,0-5.9,1.48,4.65,4.65,0,0,0-2.3,4.13q0,4.18,5.88,5.27l7.38,1.33q11.56,2.1,11.57,11.21a10,10,0,0,1-4.31,8.42q-4.31,3.21-11.46,3.21Q298.28,94.92,295.09,84.06Z"/><path class="cls-2" d="M364.56,93.87h-5.8c-.23-1.2-.45-3.47-.68-6.81q-3.88,7.86-13.26,7.86-6.36,0-9.77-3.37a11,11,0,0,1-3.41-8.11A11.35,11.35,0,0,1,336.51,74q4.88-3.69,16.55-3.69c1.05,0,2.73.05,5,.15a21.83,21.83,0,0,0-.69-6.5,5.76,5.76,0,0,0-2.94-3.2,12.57,12.57,0,0,0-5.92-1.2c-6,0-9.43,2.27-10.41,6.81l-5.43-.93q2-10.46,16.7-10.45,7.83,0,11.11,3.46t3.27,12V86.53A32.2,32.2,0,0,0,364.56,93.87ZM358.08,75c-2.39-.15-4.22-.22-5.47-.22q-7,0-10.82,2.29a7.32,7.32,0,0,0-3.86,6.68A6.27,6.27,0,0,0,340,88.44a8.47,8.47,0,0,0,6,2,11.17,11.17,0,0,0,8.75-3.87,13.25,13.25,0,0,0,3.42-9.08C358.19,76.74,358.16,75.91,358.08,75Z"/><path class="cls-2" d="M390.67,89.87v4.64a42.59,42.59,0,0,1-5.39.41q-11,0-11-11.47V60.65h-6.7v-4.6h6.7l.27-9.51L380,46v10h8.47v4.6H380V84.43c0,3.9,2,5.85,6.07,5.85A29.47,29.47,0,0,0,390.67,89.87Z"/><path class="cls-2" d="M419.91,82.6l5.47,1.12a15.43,15.43,0,0,1-5.84,8,16.92,16.92,0,0,1-10.23,3.17,15.91,15.91,0,0,1-12.54-5.45Q392,84,392,75.17q0-9,5-14.6A16,16,0,0,1,409.46,55a15.11,15.11,0,0,1,11.93,5.13q4.51,5.13,4.63,15.35H398.53q0,8.58,3.59,11.58a11.75,11.75,0,0,0,7.61,3Q416.95,90.05,419.91,82.6Zm-.33-11.5a16.62,16.62,0,0,0-1.05-5.65,9.7,9.7,0,0,0-3.3-4.22,9,9,0,0,0-5.58-1.74,10,10,0,0,0-7.43,3.15,13,13,0,0,0-3.43,8.46Z"/><path class="cls-2" d="M438.67,93.87h-5.88V42.75h5.88Z"/><path class="cls-2" d="M453.87,42.75v6.56h-6.33V42.75Zm-.19,13.3V93.87H447.8V56.05Z"/><path class="cls-2" d="M481.31,89.87v4.64a42.59,42.59,0,0,1-5.39.41q-11,0-11-11.47V60.65h-6.71v-4.6H465l.26-9.51,5.47-.53v10h8.46v4.6h-8.46V84.43q0,5.85,6.06,5.85A29.47,29.47,0,0,0,481.31,89.87Z"/><path class="cls-2" d="M516.94,93.87h-5.8c-.23-1.2-.45-3.47-.68-6.81q-3.88,7.86-13.26,7.86-6.36,0-9.77-3.37A11,11,0,0,1,484,83.44,11.37,11.37,0,0,1,488.89,74q4.88-3.69,16.55-3.69c1.05,0,2.73.05,5,.15a21.83,21.83,0,0,0-.69-6.5,5.76,5.76,0,0,0-2.94-3.2,12.57,12.57,0,0,0-5.92-1.2c-6,0-9.43,2.27-10.41,6.81l-5.43-.93q2-10.46,16.7-10.45,7.83,0,11.11,3.46t3.27,12V86.53A32.2,32.2,0,0,0,516.94,93.87ZM510.46,75c-2.4-.15-4.22-.22-5.47-.22q-7,0-10.82,2.29a7.32,7.32,0,0,0-3.86,6.68,6.27,6.27,0,0,0,2.08,4.73,8.47,8.47,0,0,0,6,2,11.17,11.17,0,0,0,8.75-3.87,13.25,13.25,0,0,0,3.43-9.08C510.58,76.74,510.54,75.91,510.46,75Z"/><path class="cls-2" d="M531,93.87h-5.88V42.75H531Z"/></svg>